#N canvas 676 0 681 668 10;
#X obj 236 102 dumpOSC 11111;
#X obj 539 368 print;
#X obj 329 310 route /notaCorrecta;
#X obj 253 409 route /notaIncorrecta;
#X obj 267 447 bng 15 250 50 0 empty empty empty 17 7 0 10 -262144
-1 -1;
#X obj 254 538 noteout;
#X msg 225 495 60;
#X msg 265 493 127;
#X msg 332 496 10;
#X obj 471 401 tgl 15 0 empty empty empty 17 7 0 10 -262144 -1 -1 1
1;
#X obj 477 522 noteout;
#X msg 488 477 127;
#X msg 555 480 1;
#X floatatom 429 357 5 0 0 0 - - -;
#X obj 128 384 bng 15 250 50 0 empty empty empty 17 7 0 10 -262144
-1 -1;
#X obj 115 475 noteout;
#X msg 126 430 127;
#X obj 114 346 route /nextLevel;
#X msg 18 433 36;
#X msg 50 435 38;
#X msg 84 435 42;
#X msg 193 433 10;
#X connect 0 0 2 0;
#X connect 0 0 3 0;
#X connect 0 0 17 0;
#X connect 2 0 13 0;
#X connect 3 0 4 0;
#X connect 4 0 6 0;
#X connect 4 0 7 0;
#X connect 4 0 8 0;
#X connect 6 0 5 0;
#X connect 7 0 5 1;
#X connect 8 0 5 2;
#X connect 9 0 11 0;
#X connect 9 0 12 0;
#X connect 11 0 10 1;
#X connect 12 0 10 2;
#X connect 13 0 10 0;
#X connect 13 0 1 0;
#X connect 14 0 16 0;
#X connect 14 0 21 0;
#X connect 14 0 18 0;
#X connect 14 0 19 0;
#X connect 14 0 20 0;
#X connect 16 0 15 1;
#X connect 17 0 14 0;
#X connect 18 0 15 0;
#X connect 19 0 15 0;
#X connect 20 0 15 0;
#X connect 21 0 15 2;
